<svg width="1400" height="1400" viewBox="0 0 1400 1400" fill="none" xmlns="http://www.w3.org/2000/svg">
  <g stroke="#C99A46" stroke-width="14" stroke-linecap="round" stroke-linejoin="round" opacity="0.9">
    <path d="M700 114C836 207 1004 227 1146 274C1152 671 1020 967 700 1186C380 967 248 671 254 274C396 227 564 207 700 114Z"/>
    <path d="M700 160C821 243 973 262 1103 306C1105 657 990 918 700 1113C410 918 295 657 297 306C427 262 579 243 700 160Z" opacity="0.84"/>
    <path d="M700 207C808 281 944 298 1062 338C1060 645 962 873 700 1046C438 873 340 645 338 338C456 298 592 281 700 207Z" opacity="0.7"/>
    <path d="M700 279C668 231 617 209 562 216C503 224 454 256 421 303"/>
    <path d="M700 279C732 231 783 209 838 216C897 224 946 256 979 303"/>
    <path d="M564 275C520 279 486 294 462 325C444 348 437 374 442 403C410 392 385 402 367 430C347 460 346 491 365 522"/>
    <path d="M836 275C880 279 914 294 938 325C956 348 963 374 958 403C990 392 1015 402 1033 430C1053 460 1054 491 1035 522"/>
    <path d="M676 340C642 309 607 297 571 304C529 312 495 338 469 383"/>
    <path d="M724 340C758 309 793 297 829 304C871 312 905 338 931 383"/>
    <path d="M468 390C444 444 447 495 476 542C503 588 548 628 611 662"/>
    <path d="M932 390C956 444 953 495 924 542C897 588 852 628 789 662"/>
    <path d="M477 468C487 535 516 589 566 632"/>
    <path d="M923 468C913 535 884 589 834 632"/>
    <path d="M495 545C514 602 551 650 606 689"/>
    <path d="M905 545C886 602 849 650 794 689"/>
    <path d="M530 615C554 667 594 709 650 741"/>
    <path d="M870 615C846 667 806 709 750 741"/>
    <path d="M592 405C563 421 541 445 525 478"/>
    <path d="M808 405C837 421 859 445 875 478"/>
    <path d="M548 480C570 455 598 441 632 438C659 435 682 440 700 454"/>
    <path d="M852 480C830 455 802 441 768 438C741 435 718 440 700 454"/>
    <path d="M558 509C582 498 607 494 633 498"/>
    <path d="M842 509C818 498 793 494 767 498"/>
    <path d="M586 484C597 473 611 467 627 467C642 467 655 472 666 482"/>
    <path d="M814 484C803 473 789 467 773 467C758 467 745 472 734 482"/>
    <path d="M582 534C614 550 652 557 696 554"/>
    <path d="M818 534C786 550 748 557 704 554"/>
    <path d="M642 612C660 594 679 584 700 582C721 584 740 594 758 612"/>
    <path d="M622 631C644 657 670 670 700 671C730 670 756 657 778 631"/>
    <path d="M645 708C660 728 678 740 700 742C722 740 740 728 755 708"/>
    <path d="M528 728C564 793 624 846 700 887"/>
    <path d="M872 728C836 793 776 846 700 887"/>
    <path d="M598 775C624 821 658 858 700 886"/>
    <path d="M802 775C776 821 742 858 700 886"/>
    <path d="M452 324C430 372 417 426 416 486"/>
    <path d="M948 324C970 372 983 426 984 486"/>
    <path d="M418 507C429 584 462 651 518 710"/>
    <path d="M982 507C971 584 938 651 882 710"/>
    <path d="M507 723C553 787 617 840 700 881"/>
    <path d="M893 723C847 787 783 840 700 881"/>
    <path d="M769 360H889"/>
    <path d="M760 390H872"/>
    <path d="M753 420H845"/>
    <path d="M835 346L930 401L878 434"/>
  </g>
</svg>
